<svg xmlns="http://www.w3.org/2000/svg" version="1.1" xmlns:xlink="http://www.w3.org/1999/xlink" xmlns:svgjs="http://svgjs.dev/svgjs" viewBox="0 0 800 800" opacity="1"><defs><linearGradient x1="50%" y1="0%" x2="50%" y2="100%" id="wwwhirl-grad"><stop stop-color="hsl(206, 75%, 49%)" stop-opacity="1" offset="45%"></stop><stop stop-color="hsl(331, 90%, 56%)" stop-opacity="1" offset="100%"></stop></linearGradient></defs><g stroke-width="2" stroke="url(#wwwhirl-grad)" fill="none" stroke-linecap="round"><path d="M93.75000097354253 427.26786531902957C106.5104174779521 417.8889591882885 170.3125 350.1151970292431 195.83333300881918 352.2366162731012C221.35416601763836 354.3580355169593 272.3958320352767 439.54976620452373 297.91666504409585 444.2392192698943C323.437498052915 448.9286723352648 374.47916407055334 391.203738173442 399.99999707937246 389.7522407960654C425.5208300881916 388.3007434186888 476.56249610582995 436.9817323830113 502.08332911464913 432.6272402508816C527.6041621234683 428.2727481187518 578.6458281411067 353.0181917839963 604.1666611499259 354.9163037390272C629.6874941587449 356.81441569405814 693.4895766807929 436.2001568721163 706.2499931852024 447.81213589112895 " transform="rotate(96.25, 400, 400)"></path><path d="M102.50000094572702 426.48877713127325C114.8958341214392 417.37783974712477 176.875 351.5404707926236 201.66666635142434 353.6012780580857C226.45833270284868 355.66208532354784 276.04166540569736 438.4197665628962 300.83333175712164 442.9752352549704C325.6249981085459 447.5307039470446 375.20833081139466 391.45505361841674 399.99999716281894 390.0450275946795C424.7916635142433 388.6350015709422 474.37499621709196 435.9251051362841 499.16666256851624 431.69502706507234C523.9583289199406 427.46494899386056 573.5416616227893 354.3605228400981 598.3333279742137 356.20440302498525C623.1249943256379 358.04828320987247 685.1041602041988 435.1658603542718 697.4999933799108 446.44606854416986 " transform="rotate(93.5, 400, 400)"></path><path d="M111.25000091791152 425.7096851288197C123.28125076492627 416.86671649126384 183.4375 352.9657407413067 207.4999996940295 354.96593602837294C231.562499388059 356.96613131543916 279.687498776118 437.28976310657134 303.7499984701475 441.71124742534926C327.812498164177 446.13273174412717 375.937497552236 391.7063652486942 399.9999972462654 390.3378105785963C424.0624969402949 388.9692559084984 472.187496328354 434.8684740748596 496.2499960223834 430.7628100645658C520.312495716413 426.65714605427206 568.437495104472 355.7028500815026 592.4999947985015 357.49249849624607C616.562494492531 359.28214691098947 676.7187437276048 434.13156002172997 688.7499935746193 445.0799973825134 " transform="rotate(90.75, 400, 400)"></path><path d="M120.00000089009602 424.93060838515515C131.66666740841336 416.3556084941919 190 354.391025948779 213.33333303663466 356.3306092574492C236.66666607326934 358.2701925661195 283.3333321465387 436.15977490903555 306.66666518317334 440.4472748545172C329.99999821980794 444.73477479999883 376.6666642930773 391.9576921377608 399.99999732971196 390.6306088213022C423.3333303663466 389.3035255048436 469.999996439616 433.8118582722242 493.3333294762506 429.83060832284843C516.6666625128853 425.8493583734726 563.3333285861547 357.0451925816962 586.6666616227893 358.7806092262959C609.9999946594239 360.5160258708956 668.3333272510106 433.09727494797727 679.9999937693278 443.71394147964605 " transform="rotate(88, 400, 400)"></path><path d="M128.7500008622805 424.15154308558243C140.05208405190044 415.8445119412118 196.5625 355.816322600343 219.16666637923984 357.6952939306173C241.77083275847968 359.57426526089165 286.97916551695937 435.0297981555916 309.5833318961992 439.1833137277769C332.187498275439 443.33682929996223 377.3958310339186 392.2090304709191 399.99999741315844 390.92341850809987C422.60416379239825 389.6378065452806 467.812496550878 432.7552539136806 490.41666293011775 428.8984180252228C513.0208293093576 425.041582136765 558.2291620678373 358.3875465259815 580.8333284470772 360.0687314004375C603.4374948263169 361.74991627489345 659.9479107744165 432.06300131831637 671.2499939640364 442.3478970208705 " transform="rotate(85.25, 400, 400)"></path><path d="M137.50000083446503 423.3724472684316C148.43750069538754 415.33338487065356 203.125 357.24158873432896 224.999999721845 359.05994808620727C246.87499944369 360.87830743808564 290.62499888738 433.8997908845695 312.49999860922503 437.9193220834585C334.37499833106995 441.9388532823475 378.12499777476 392.4603382864994 399.999997496605 391.2161976773194C421.87499721844995 389.9720570681395 465.62499666213995 431.69861903755884 487.4999963839849 427.966197210019C509.37499610582995 424.2337753824792 553.12499554952 359.7298699526888 574.9999952713649 361.356823057001C596.8749949932098 362.98377616131324 651.5624942978225 431.02869717107734 662.4999941587449 440.9818220445168 " transform="rotate(82.5, 400, 400)"></path><path d="M146.25000080664952 422.59336289537254C156.82291733887462 414.8222692441871 209.6875 358.6668663124066 230.8333330644502 360.4246136858891C251.97916612890035 362.1823610593715 294.2708322578007 432.76979505763916 315.4166653222508 436.65534188323187C336.562498386701 440.5408887088246 378.8541645156013 392.7116575461714 399.99999758005146 391.5089882906308C421.1458306445016 390.3063190350902 463.43749677340196 430.6419956055289 484.5833298378521 427.0339878389071C505.7291629023023 423.42598007228526 548.0208290312027 361.0722048234878 569.1666620956528 362.6449261576563C590.3124951601029 364.2176474918248 643.1770778212284 429.99440446793005 653.7499943534534 439.6157585122549 " transform="rotate(79.75, 400, 400)"></path><path d="M155.00000077883402 421.8142975957998C165.2083339823617 414.311172691207 216.25 360.0921629639707 236.66666640705535 361.78929835905717C257.0833328141107 363.4864337541436 297.9166656282214 431.63981830419516 318.33333203527667 435.39138075649157C338.74999844233196 439.14294320878804 379.58333125644265 392.96299587932975 399.999997663498 391.80179797742846C420.4166640705533 390.64060007552723 461.249996884664 429.58539124698524 481.66666329171926 426.1017975412814C502.0833296987746 422.6182038355776 542.9166625128853 362.4145587677732 563.3333289199406 363.933048331798C583.749995326996 365.4515378958227 634.7916613446343 428.96013083826915 644.9999945481619 438.24971405347935 " transform="rotate(77, 400, 400)"></path><path d="M163.75000075101852 421.03521322274077C173.59375062584877 413.80005706474054 222.8125 361.51744054204835 242.4999997496605 363.1539639587389C262.187499499321 364.79048737542945 301.562498998642 430.5098224772649 321.24999874830246 434.127400556265C340.937498497963 437.7449786352651 380.312497997284 393.21431513900177 399.9999977469445 392.0945885907398C419.6874974966049 390.97486204247787 459.062496995926 428.5287678149553 478.74999674558643 425.16958817016945C498.43749649524693 421.81040852538365 537.8124959945679 363.75689363857225 557.4999957442285 365.22115143245327C577.187495493889 366.6854092263343 626.4062448680402 427.9258381351219 636.2499947428704 436.8836505212175 " transform="rotate(74.25, 400, 400)"></path><path d="M172.50000072320302 420.2561288496817C181.97916726933585 413.2889414382741 229.375 362.9427181201261 248.33333309226566 364.5186295584207C267.2916661845313 366.09454099671524 305.2083323690627 429.37982665033456 324.1666654613283 432.8634203560384C343.12499855359397 436.3470140617422 381.04166473812535 393.4656343986738 399.99999783039095 392.3873792040512C418.9583309226566 391.30912400942856 456.874997107188 427.4721443829253 475.8333301994536 424.2373787990575C494.79166329171926 421.0026132151897 532.7083294762506 365.0992285093713 551.6666625685164 366.50925453310856C570.6249956607819 367.9192805568458 618.0208283914462 426.8915454319747 627.4999949375789 435.5175869889556 " transform="rotate(71.5, 400, 400)"></path><path d="M181.2500006953875 419.47704447662267C190.36458391282292 412.77782581180765 235.9375 364.3679956982038 254.16666643487082 365.88329515810244C272.39583286974164 367.3985946180011 308.85416573948334 428.24983082340424 327.08333217435415 431.59944015581175C345.312498609225 434.94904948821926 381.77083147896667 393.7169536583458 399.99999791383743 392.6801698173625C418.2291643487083 391.64338597637925 454.68749721844995 426.41552095089537 472.91666365332077 423.30516942794554C491.1458300881916 420.1948179049957 527.6041629579333 366.44156338017035 545.8333293928042 367.79735763376385C564.0624958276749 369.1531518873574 609.635411914852 425.85725272882746 618.7499951322874 434.15152345669367 " transform="rotate(68.75, 400, 400)"></path><path d="M190.000000667572 418.69796773295815C198.75000055631 412.2667178147357 242.5 365.79328090567606 259.999999777476 367.24796838717873C277.499999554952 368.7026558686814 312.499999109904 427.1198426258685 329.99999888738 430.3354675849797C347.499998664856 433.5510925440909 382.49999821980805 393.9682805474124 399.99999799728397 392.9729680600684C417.49999777475995 391.9776555727245 452.49999732971196 425.35890514825996 469.99999710718794 422.3729676862281C487.4999968846639 419.3870302241963 522.499996439616 367.78390588036393 539.999996217092 369.0854683638137C557.4999959945679 370.3870308472635 601.2499954382579 424.82296765507476 609.999995326996 432.7854675538263 " transform="rotate(66, 400, 400)"></path><path d="M198.75000063975654 417.91887382315593C207.1354171997971 411.7555926515261 249.0625 367.21854894701056 265.8333331200812 368.6126244501173C282.60416624016233 370.0066999532241 316.14583248032466 425.989837262195 332.91666560040585 429.0714778480099C349.687498720487 432.15311843382483 383.2291649606493 394.21959027034126 399.99999808073045 393.26574913663666C416.7708312008116 392.311908002932 450.31249744097397 424.3022721794868 467.0833305610551 421.440748778373C483.8541636811363 418.57922537725915 517.3958299212986 369.1262312144198 534.1666630413798 370.37356192772586C550.937496161461 371.6208926410319 592.8645789616638 423.78866541518437 601.2499955217045 431.4193944848213 " transform="rotate(63.25, 400, 400)"></path><path d="M207.500000611941 417.1397970794914C215.52083384328418 411.2444846544542 255.625 368.6438341544828 271.66666646268635 369.9772976791936C287.7083329253727 371.3107612039044 319.79166585074535 424.8598490646592 335.8333323134317 427.8075052771778C351.874998776118 430.75516148969643 383.9583317014907 394.4709171594078 399.999998164177 393.55854737934254C416.0416646268633 392.6461775992772 448.124997552236 423.2456563768514 464.1666640149223 420.50854703665556C480.2083304776086 417.7714376964597 512.2916634029814 370.4685737146134 528.3333298656676 371.6616726577757C544.374996328354 372.85477160093797 584.4791624850698 422.75438034143167 592.499995716413 430.05333858195394 " transform="rotate(60.5, 400, 400)"></path><path d="M216.25000058412553 416.36071842847826C223.90625048677128 410.73337475003365 262.1875 370.06911745460644 277.4999998052915 371.34196900092127C292.812499610583 372.61482054723615 323.43749922116604 423.7298589597748 338.7499990264575 426.5435307989971C354.06249883174894 429.3572026382194 384.68749844233196 394.7222421411257 399.99999824762347 393.8513437146998C415.312498052915 392.9804452882738 445.937497663498 422.18903866686736 461.24999746878945 419.5763433875895C476.56249727408095 416.96364810831165 507.187496884664 371.81091430745835 522.4999966899554 372.9497814804769C537.8124964952469 374.08864865349545 576.0937460084757 421.7200933603303 583.7499959111215 428.68728077173796 " transform="rotate(57.75, 400, 400)"></path><path d="M225.00000055631 415.58163596276785C232.29166713025836 410.22226103091583 268.75 371.49439694003274 283.33333314789667 372.70663650795166C297.91666629579333 373.91887607587057 327.08333259158667 422.59986504019315 341.66666573948334 425.27955250611916C356.24999888738 427.95923997204517 385.41666518317334 394.97356330814637 399.99999833106995 394.1441362353598C414.58333147896667 393.31470916257314 443.74999777475995 421.132417142186 458.3333309226566 418.6441359238262C472.9166640705533 416.1558547054663 502.0833303663467 373.15325108560603 516.6666635142433 374.23788648848085C531.2499966621399 375.3225218913556 567.7083295318816 420.6858025645317 574.99999610583 427.32121914682466 " transform="rotate(55, 400, 400)"></path><path d="M233.75000052849452 414.80255349705743C240.67708377374544 409.711147311798 275.3125 372.9196764254591 289.1666664905018 374.07130401498205C303.02083298100365 375.22293160450505 330.72916596200736 421.46987112061146 344.5833324525092 424.01557421324117C358.43749894301095 426.5612773058709 386.14583192401466 395.2248844751671 399.9999984145165 394.43692875601977C413.8541649050183 393.64897303687246 441.56249788602196 420.0757956175047 455.4166643765238 417.71192846006284C469.2708308670256 415.348061302621 496.9791638480293 374.4955878637537 510.83333033853114 375.5259914964848C524.687496829033 376.55639512921584 559.3229130552875 419.6515117687331 566.2499963005384 425.9551575219114 " transform="rotate(52.25, 400, 400)"></path><path d="M242.500000500679 414.0234748460443C249.0625004172325 409.20003740737747 281.875 374.3449597255827 294.99999983310704 375.4359753367097C308.124999666214 376.52699094783674 334.374999332428 420.33988101572703 347.499999165535 422.75159973506044C360.624998998642 425.16331845439385 386.874998664856 395.476209456885 399.999998497963 394.729725091377C413.12499833106995 393.98324072586905 439.37499799728397 419.01917790752066 452.49999783039095 416.77972481099675C465.624997663498 414.5402717144729 491.87499732971196 375.83792845659866 504.999997162819 376.81410031918597C518.124996995926 377.7902721817733 550.9374965786935 418.61722478763176 557.4999964952469 424.58909971169544 " transform="rotate(49.5, 400, 400)"></path><path d="M251.25000047286352 413.24439238033386C257.4479170607196 408.68892368825965 288.4375 375.770239211009 300.83333317571214 376.8006428437401C313.22916635142434 377.8310464764712 338.0208327028487 419.2098870961454 350.4166658785608 421.48762144218244C362.81249905427296 423.7653557882196 387.60416540569736 395.72753062390564 399.9999985814095 395.022517612037C412.39583175712164 394.3175046001684 437.187498108546 417.96255638283935 449.5833312842581 415.8475173472334C461.9791644599703 413.7324783116276 486.77083081139466 377.1802652347463 499.16666398710686 378.1022053271899C511.56249716281894 379.0241454196335 542.5520801020994 417.58293399183316 548.7499966899554 423.2230380867822 " transform="rotate(46.75, 400, 400)"></path><path d="M260.00000044504804 412.4653060999262C265.83333370420667 408.17780615444457 295 377.1955148817381 306.66666651831736 378.1653065360733C318.33333303663466 379.13509819040837 341.6666660732693 418.07988936186644 353.33333259158667 420.22363933460724C364.99999910990397 422.36738930734805 388.3333321465386 395.978847976229 399.999998664856 395.3153063179997C411.66666518317334 394.65176465977044 434.999998219808 416.9059310434607 446.6666647381253 414.91530606877285C458.33333125644265 412.9246810940849 481.66666429307736 378.5225981981967 493.33333081139466 379.39030652049655C504.99999732971196 380.2580148427964 534.1666636255053 416.54863938133724 539.9999968846639 421.85697264717163 " transform="rotate(44, 400, 400)"></path><path d="M268.7500004172325 411.68622744891303C274.21875034769374 407.666696250024 301.5625 378.62079818186174 312.4999998609225 379.52997785780093C323.43749972184503 380.4391575337401 345.31249944369 416.949899256982 356.2499993046125 418.9596648564265C367.187499165535 420.969430455871 389.06249888738 396.23017295794693 399.99999874830246 395.608102653357C410.937498609225 394.986032348767 432.81249833106995 415.8493133334767 443.74999819199246 413.98310241970677C454.687498052915 412.1168915059369 476.56249777476 379.86493879104165 487.49999763568246 380.6784153431978C498.4374974966049 381.4918918953539 525.7812471489112 415.5143524002359 531.2499970793724 420.49091483695565 " transform="rotate(41.25, 400, 400)"></path><path d="M277.500000389417 410.9071468905513C282.6041669911808 407.15558443825483 308.125 380.0460795746367 318.3333332035277 380.89464727217995C328.54166640705535 381.74321496972317 348.9583328141107 415.81990724474895 359.16666601763836 417.69568847089715C369.374999221166 419.57146969704536 389.7916656282213 396.4814960323163 399.999998831749 395.9008970813656C410.2083320352766 395.320298130415 430.62499844233196 414.792693716144 440.83333164585963 413.0508968632921C451.0416648493873 411.30910001044015 471.45833125644265 381.20727747653797 481.6666644599703 381.96652225855036C491.874997663498 382.7257670405627 517.3958306723172 414.48006351178594 522.4999972740809 419.12485511939104 " transform="rotate(38.5, 400, 400)"></path><path d="M286.2500003616015 410.1280663321895C290.98958363466795 406.64447262648565 314.6875 381.47136096741167 324.16666654613283 382.259316686559C333.64583309226566 383.0472724057063 352.6041661845313 414.6899152325159 362.08333273066415 416.43171208536785C371.562499276797 418.1735089382197 390.52083236906265 396.73281910668555 399.9999989151955 396.1936915093742C409.4791654613283 395.65456391206294 428.43749855359397 413.7360740988113 437.9166650997268 412.1186913068774C447.39583164585963 410.50130851494345 466.3541647381253 382.5496161620343 475.8333312842582 383.2546291739029C485.31249783039095 383.95964218577154 509.0104141957231 413.445774623336 513.7499974687894 417.75879540182643 " transform="rotate(35.75, 400, 400)"></path><path d="M295.00000033378603 409.34898195913047C299.375000278155 406.1333570000192 321.25 382.8966385454894 329.999999888738 383.62398228624073C338.749999777476 384.35132602699207 356.249999554952 413.5599194055856 364.99999944369 415.1677318851412C373.749999332428 416.7755443646968 391.249999109904 396.98413836635757 399.999998998642 396.4864821226856C408.74999888738 395.98882587901363 426.249998664856 412.67945066678135 434.99999855359397 411.1864819357654C443.74999844233196 409.6935132047495 461.249998219808 383.89195103283333 469.999998108546 384.5427322745582C478.74999799728397 385.19351351628313 500.62499771912894 412.41148192018875 504.999997663498 416.3927318695645 " transform="rotate(33, 400, 400)"></path><path d="M303.7500003059705 408.56989949342005C307.7604169216421 405.62224328090144 327.8125 384.32191803091575 335.8333332313432 384.9886497932711C343.85416646268635 385.65538155562655 359.8958329253727 412.4299254860039 367.91666615671585 413.90375359226323C375.937499388059 415.37758169852253 391.97916585074535 397.2354595333782 399.9999990820885 396.77927464334556C408.02083231343164 396.32308975331296 424.062498776118 411.62282914210004 432.08333200746114 410.25427447200207C440.1041652388043 408.88571980190414 456.1458317014907 385.234287810981 464.1666649328338 385.83083728256213C472.187498164177 386.4273867541433 492.2395812425349 411.37719112439015 496.2499978582065 415.02667024465126 " transform="rotate(30.25, 400, 400)"></path><path d="M312.500000278155 407.79081798138395C316.1458335651292 405.11113051545794 334.375 385.7471984700164 341.6666665739483 386.35331825397583C348.95833314789667 386.9594380379353 363.54166629579333 411.29993252009655 370.83333286974164 412.63977625305955C378.12499944369 413.97961998602256 392.70833259158667 397.4867816540732 399.999999165535 397.07206811767986C407.29166573948334 396.65735458128654 421.87499888738 410.566208571093 429.1666654613283 409.3220679619131C436.4583320352766 408.0779273527331 451.04166518317334 386.576625542803 458.33333175712164 387.1189432442404C465.62499833106995 387.66126094567784 483.8541647659408 410.34290128226587 487.499998052915 413.66060957341233 " transform="rotate(27.5, 400, 400)"></path><path d="M321.2500002503395 407.01173646934785C324.53125020861626 404.60001775001444 340.9375 387.17247890911705 347.4999999165535 387.71798671468053C354.06249983310704 388.2634945202441 367.18749966621397 410.1699395541892 373.7499995827675 411.37579891385593C380.312499499321 412.58165827352263 393.437499332428 397.73810377476815 399.9999992489815 397.3648615920142C406.562499165535 396.99161940926024 419.687498998642 409.509588000086 426.2499989151955 408.38986145182406C432.812498831749 407.2701349035621 445.937498664856 387.918963274625 452.4999985814095 388.40704920591867C459.062498497963 388.8951351372123 475.46874828934676 409.30861144014153 478.74999824762347 412.2945489021734 " transform="rotate(24.75, 400, 400)"></path><path d="M330.000000222524 406.23265400363744C332.91666685210333 404.08890403089663 347.5 388.59775839454335 353.3333332591587 389.0826542217109C359.16666651831736 389.5675500488785 370.83333303663466 409.03994563460753 376.66666629579333 410.11182062097794C382.49999955495196 411.18369560734834 394.1666660732693 397.9894249417888 399.999999332428 397.6576541126742C405.83333259158667 397.3258832835595 417.499999109904 408.4529664754047 423.33333236906265 407.4576539880607C429.1666656282213 406.4623415007168 440.8333321465387 389.2613000527727 446.66666540569736 389.6951542139226C452.499998664856 390.12900837507254 467.08333181275265 408.27432064434294 469.99999844233196 410.92848727726016 " transform="rotate(22, 400, 400)"></path><path d="M338.75000400940576 405.45357249160134C341.3020873102877 403.57779126545313 354.06250381469727 390.023038833644 359.1666704164611 390.44732268241563C364.27083701822494 390.8716065311873 374.4791702217526 407.90995266870016 379.58333682351645 408.84784328177426C384.6875034252803 409.78573389484836 394.89583662880796 398.2407470624838 400.0000032305718 397.9504475870085C405.1041698323356 397.66014811153315 415.31250303586324 407.39634590439766 420.4166696376271 406.52544747797174C425.5208362393909 405.65454905154576 435.7291694429186 390.6036377845947 440.8333360446824 390.98326017560083C445.93750264644626 391.362882566607 458.69791915085585 407.24003080221866 461.2500024517377 409.5624266060212 " transform="rotate(19.25, 400, 400)"></path><path d="M347.5000039815903 404.67449097956523C349.68750395377475 403.06667850000963 360.62500381469727 391.4483192727447 365.00000375906626 391.8119911431204C369.37500370343525 392.17566301349603 378.12500359217324 406.7799597027928 382.5000035365423 407.5838659425706C386.87500348091123 408.3877721823484 395.6250033696493 398.4920691831788 400.0000033140183 398.2432410613428C404.37500325838727 397.9944129395068 413.12500314712526 406.3397253333907 417.50000309149425 405.5932409678827C421.87500303586324 404.84675660237474 430.6250029246013 391.94597551641664 435.0000028689702 392.27136613727913C439.3750028133393 392.59675675814157 450.31250267426174 406.2057409600944 452.50000264644626 408.19636593478225 " transform="rotate(16.5, 400, 400)"></path><path d="M356.25000395377475 403.8954085138548C358.0729205972618 402.5555647808918 367.18750381469727 392.87359875817106 370.8333371016714 393.1766586501508C374.47917038864557 393.4797185421305 381.77083696259393 405.64996578321114 385.4166702495681 406.31988764969265C389.0625035365423 406.98980951617415 396.3541701104906 398.74339035019943 400.00000339746475 398.5360335820028C403.6458366844389 398.3286768138061 410.93750325838727 405.28310380870937 414.5833365453614 404.66103350411936C418.2291698323356 404.0389631995294 425.52083640628393 393.2883122945643 429.1666696932581 393.55947114528306C432.81250298023224 393.83062999600173 441.9270861976677 405.1714501642958 443.75000284115475 406.830304309869 " transform="rotate(13.75, 400, 400)"></path><path d="M365.0000039259593 403.11632795549303C366.45833724074896 402.04445296912263 373.75000381469727 394.298880150946 376.66667044427663 394.5413280645298C379.58333707385594 394.78377597811357 385.4166703330146 404.5199737709781 388.33333696259393 405.0559112641633C391.25000359217324 405.5918487573485 397.0833368513319 398.9947134245687 400.00000348091123 398.8288280100114C402.9166701104906 398.66294259545407 408.7500033696493 404.22648419137664 411.6666699992286 403.7288279477047C414.58333662880796 403.2311717040327 420.4166698879666 394.63065098006064 423.33333651754594 394.8475780606356C426.25000314712526 395.0645051412106 433.5416697210736 404.1371612758458 435.00000303586324 405.4642445923044 " transform="rotate(11, 400, 400)"></path><path d="M373.75000389814375 402.3372454897826C374.84375388423604 401.5333392500048 380.31250381469727 395.72415963637235 382.50000378688173 395.9059955715602C384.68750375906626 396.087831506748 389.06250370343525 403.3899798513964 391.2500036756198 403.7919329712853C393.43750364780425 404.1938860911742 397.81250359217324 399.24603459158936 400.00000356435777 399.1216205306714C402.1875035365423 398.9972064697534 406.56250348091123 403.16986266669534 408.75000345309576 402.79662048394135C410.9375034252803 402.42337830118737 415.3125033696493 395.9729877582083 417.50000334183375 396.13568306863954C419.6875033140183 396.29837837907075 425.1562532444795 403.10287048004716 426.2500032305718 404.09818296739115 " transform="rotate(8.25, 400, 400)"></path><path d="M382.50000387032827 401.5581630240722C383.2291705277231 401.022225530887 386.87500381469727 397.1494391217987 388.33333712948695 397.2706630785906C389.79167044427663 397.39188703538247 392.70833707385594 402.25998593181475 394.16667038864557 402.52795467840735C395.62500370343525 402.79592342499996 398.5416703330146 399.49735575861007 400.00000364780425 399.4144130513314C401.45833696259393 399.3314703440527 404.37500359217324 402.11324114201403 405.8333369069629 401.864413020178C407.2916702217526 401.61558489834204 410.2083368513319 397.315324536356 411.6666701661216 397.4237880766435C413.12500348091123 397.532251616931 416.77083676788544 402.06857968424856 417.5000034252803 402.73212134247785 " transform="rotate(5.5, 400, 400)"></path><path d="M391.2500038425128 400.7790824657104C391.6145871712102 400.5111137191178 393.43750381469727 398.57472051457364 394.1666704720921 398.6353324929696C394.89583712948695 398.6959444713656 396.35417044427663 401.1299939195817 397.0833371016714 401.263978292878C397.81250375906626 401.3979626661743 399.27083707385594 399.74867883297935 400.0000037312508 399.70720747934C400.72917038864557 399.6657361257007 402.18750370343525 401.0566215246813 402.9166703608301 400.93220746376335C403.64583701822494 400.80779340284533 405.1041703330146 398.6576632218523 405.8333369904094 398.7118949919961C406.56250364780425 398.76612676213983 408.3854202912913 401.0342907957986 408.7500036199888 401.36606162491324 " transform="rotate(2.75, 400, 400)"></path></g></svg>