<svg xmlns="http://www.w3.org/2000/svg" version="1.1" xmlns:xlink="http://www.w3.org/1999/xlink" xmlns:svgjs="http://svgjs.dev/svgjs" viewBox="0 0 800 800" opacity="0.69"><defs><linearGradient x1="50%" y1="0%" x2="50%" y2="100%" id="wwwhirl-grad"><stop stop-color="#00334eff" stop-opacity="1" offset="45%"></stop><stop stop-color="hsl(180, 69%, 60%)" stop-opacity="1" offset="100%"></stop></linearGradient></defs><g stroke-width="3" stroke="url(#wwwhirl-grad)" fill="none" stroke-linecap="round"><path d="M77.000001540184 413.19632175116396C85.97222364831852 402.11562744761784 112.88888997272208 343.21298930771474 130.8333341889911 346.7121559298872C148.77777840526016 350.21132255205964 166.72222262152917 430.25475903425473 184.66666683779823 434.19132148419874C202.61111105406727 438.1278839341428 220.5555552703363 367.12396122589325 238.49999948660533 370.3315306295513C256.4444437028744 373.5391000332094 274.3888879191434 453.14514068763293 292.33333213541243 453.4367379061473C310.2777763516815 453.72833512466167 328.22222056795056 373.976495860981 346.1666647842195 372.0811139406376C364.11110900048857 370.18573202029415 382.05555321675763 439.73166863597186 399.9999974330267 442.0644463840868C417.9444416492957 444.39722413220176 435.88888586556476 387.3899679126421 453.8333300818338 386.0777804293274C471.77777429810277 384.76559294601276 489.7222185143717 439.4400714174575 507.6666627306409 434.19132148419874C525.6111069469099 428.9425715509401 543.555551163179 351.52351003537433 561.4999953794479 354.58528082977523C579.4444395957171 357.64705162417613 597.388883811986 446.58420327105955 615.3333280282551 452.5619462506042C633.2777722445242 458.5396892301488 651.2222164607931 390.5975373163002 669.1666606770622 390.451738707043C687.1111048933313 390.3059400977858 714.0277712177348 441.48125194705807 722.9999933258694 451.6871545950611 " transform="rotate(102, 400, 400)"></path><path d="M86.50000149488447 412.80819576280544C95.20833471748563 402.053404232893 121.33333438528908 344.88319662651645 138.7500008304914 348.2794465833309C156.16666727569367 351.67569654014534 173.58333372089595 429.36491430227585 191.0000001660983 433.1856955036921C208.41666661130057 437.0064767051084 225.83333305650288 368.0909046647485 243.2499995017052 371.20413379182844C260.66666594690753 374.3173629189083 278.0833323921098 451.58204943643705 295.4999988373121 451.8650702661716C312.9166652825144 452.1480910959061 330.33333172771665 374.74189416351015 347.749998172919 372.9022587702357C365.1666646181213 371.06262337696114 382.5833310633236 438.56309126864835 399.9999975085259 440.82725790652466C417.4166639537282 443.0914245444009 434.8333303989305 387.76085233129885 452.24999684413274 386.48725859749345C469.66666328933513 385.21366486368805 487.0833297345373 438.2800704389138 504.49999617973964 433.1856955036921C521.916662624942 428.09132056847045 539.3333290701441 352.94929027395074 556.7499955153465 355.92100898616343C574.1666619605489 358.89272769837606 591.5833284057512 445.21408076740994 608.9999948509535 451.01600777696797C626.4166612961558 456.817934786526 643.8333277413581 390.8740814583788 661.2499941865603 390.7325710435115C678.6666606317627 390.59106062864424 704.7916602995662 440.2612162470556 713.4999935221673 450.16694528776435 " transform="rotate(99, 400, 400)"></path><path d="M96.00000144958494 412.42005833035506C104.44444578665272 401.99116957407637 129.7777787978561 346.55339250122637 146.66666747199164 349.8467257926828C163.5555561461272 353.14005908413924 180.44444482026276 428.47505812620517 197.33333349439832 432.18005807909367C214.2222221685339 435.88505803198217 231.11111084266946 369.057836659512 247.99999951680502 372.0767255100137C264.88888819094063 375.09561436051547 281.77777686507613 450.01894674114936 298.6666655392117 450.2933911821041C315.55555421334725 450.5678356230587 332.44444288748286 375.5072810219475 349.33333156161837 373.723392155742C366.222220235754 371.9395032895364 383.11110890988954 437.39450245723305 399.9999975840251 439.59005798487067C416.88888625816065 441.78561351250823 433.7777749322962 388.1317253058638 450.6666636064318 386.8967253215677C467.5555522805674 385.66172533727155 484.4444409547029 437.12005801627834 501.33332962883844 432.18005807909367C518.222218302974 427.240058141909 535.1111069771096 354.3750590684354 551.9999956512452 357.2567256984598C568.8888843253808 360.13839232848414 585.7777729995163 443.84394681966853 602.6666616736518 449.47005785923994C619.5555503477874 455.09616889881136 636.444439021923 391.1506141563656 653.3333276960585 391.01339193588825C670.2222163701941 390.87616971541087 695.5555493813974 439.04116910296125 703.9999937184652 448.6467245363758 " transform="rotate(96, 400, 400)"></path><path d="M105.50000140428541 412.03193615669375C113.68055685581983 401.92895017404874 138.22222321042307 348.22360363472535 154.5833341134919 351.41402026082375C170.94444501656073 354.60443688692214 187.30555591962954 427.58521720892355 203.66666682269837 431.1744359132843C220.02777772576724 434.763654617645 236.388888628836 370.02478391306454 252.74999953190488 372.9493324869881C269.11111043497374 375.87388106091163 285.4722213380425 448.45585930465074 301.8333322411113 448.72172735682557C318.1944431441801 448.98759540900045 334.555554047249 376.272683139174 350.9166649503178 374.5445408000373C367.27777585338663 372.81639846090064 383.6388867564555 436.2259289046068 399.99999765952435 438.35287332200573C416.36110856259313 440.47981773940467 432.72221946566196 388.5026135392179 449.0833303687308 387.306207304431C465.44444127179963 386.10980106964405 481.8055521748684 435.9600608524319 498.1666630779372 431.1744359132843C514.527773981006 426.3888109741366 530.8888848840749 355.8008431217091 547.2499957871437 358.5924576695452C563.6111066902126 361.38407221738134 579.9722175932814 442.4738281307162 596.3333284963503 447.924123200301C612.6944393994191 453.3744182698858 629.0555503024879 391.42716211314143 645.4166612055567 391.294228087054C661.7777721086255 391.1612940609666 686.3194384632288 437.821137217656 694.4999939147632 447.1265190437764 " transform="rotate(93, 400, 400)"></path><path d="M115.00000135898588 411.64381398303243C122.91666792498692 401.86673077402116 146.66666762299008 349.8938147682243 162.50000075499216 352.9813147289647C178.33333388699424 356.0688146897051 194.16666701899635 426.69537629164194 210.00000015099843 430.1688137474749C225.8333332830005 433.64225120330786 241.66666641500262 370.9917311666171 257.4999995470047 373.82193946396245C273.33333267900684 376.65214776130784 289.1666658110089 446.8927718681521 304.99999894301095 447.1500635315472C320.83333207501306 447.40735519494217 336.66666520701517 377.0380852564004 352.4999983390172 375.36568944433265C368.33333147101933 373.69329363226495 384.16666460302145 435.05735535198056 399.9999977350235 437.1156886591408C415.8333308670256 439.1740219663011 431.6666639990277 388.87350177257196 447.49999713102983 387.7156892872943C463.3333302630319 386.55787680201666 479.1666633950339 434.8000636885855 494.99999652703605 430.1688137474749C510.83332965903816 425.5375638063643 526.6666627910403 357.22662717498275 542.4999959230423 359.92818964063065C558.3333290550445 362.6297521062785 574.1666621870465 441.10370944176384 589.9999953190486 446.3781885413621C605.8333284510508 451.65266764096026 621.6666615830527 391.7037100699173 637.4999947150549 391.5750642382198C653.333327847057 391.4464184065223 677.0833275450601 436.60110533235076 684.9999941110611 445.606313551177 " transform="rotate(90, 400, 400)"></path><path d="M124.50000131368635 411.25568417997664C132.15277899415403 401.80450374459906 155.11111203555708 351.5640182723287 170.41666739649241 354.5486015677111C185.72222275742777 357.53318486309354 201.02777811836313 425.8055277449658 216.3333334792985 429.16318395227097C231.63888884023385 432.5208401595762 246.94444420116918 371.9586707907751 262.24999956210456 374.6945388115423C277.55555492303995 377.4304068323095 292.8611102839752 445.329676802259 308.1666656449106 445.57839207687414C323.47222100584594 445.82710735148936 338.7777763667813 377.8034797442323 354.08333172771665 376.1868304592335C369.38888708865204 374.5701811742347 384.6944424495874 433.8887741699598 399.99999781052276 435.8784963668814C415.3055531714581 437.868218563803 430.6111085323935 389.24438237653146 445.9166638933288 388.12516364076305C461.2222192542642 387.00594490499464 476.52777461519946 433.64005889534457 491.83332997613485 429.16318395227097C507.13888533707023 424.68630900919743 522.4444406980056 358.65240359886195 537.749996058941 361.2639139823215C553.0555514198763 363.8754243657811 568.3611067808116 439.73358312341696 583.666662141747 444.83224625302853C598.9722175026824 449.93090938264015 614.2777728636177 391.9802503972987 629.583328224553 391.85589275999104C644.8888835854884 391.73153512268345 667.8472166268914 435.381065817651 675.4999943073591 444.0861004291829 " transform="rotate(87, 400, 400)"></path><path d="M134.00000126838682 410.8675620063153C141.38889006332113 401.74228434457143 163.55555644812407 353.2342294058277 178.3333340379927 356.1158960358521C193.1111116278613 358.99756266587644 207.8888892177299 424.91568682768417 222.66666680759852 428.1575617864616C237.44444439746718 431.39943674523903 252.2222219873358 372.9256180443276 266.9999995772044 375.56714578851665C281.77777716707305 378.2086735327057 296.55555475694166 443.76658936576035 311.33333234681027 444.0067282515957C326.1111099366789 444.2468671374311 340.8888875265475 378.5688818614587 355.6666651164161 377.00797910352884C370.4444427062847 375.447076345599 385.2222202961534 432.72020061733355 399.99999788602196 434.64131170401646C414.77777547589056 436.5624227906994 429.5555530657592 389.6152706098855 444.33333065562783 388.5346456236264C459.11110824549644 387.4540206373672 473.888885835365 432.48006173149815 488.66666342523365 428.1575617864616C503.4444410151023 423.83506184142504 518.2222186049707 360.0781876521356 532.9999961948395 362.59964595340693C547.7777737847082 365.12110425467824 562.5555513745767 438.3634644344646 577.3333289644454 443.2863115940896C592.111106554314 448.2091587537146 606.8888841441826 392.25679835407453 621.6666617340512 392.13672891115687C636.4444393239198 392.01665946823914 658.6111057087228 434.16103393234573 665.9999945036571 442.5658949365835 " transform="rotate(84, 400, 400)"></path><path d="M143.50000122308728 410.4794283885622C150.62500113248825 401.68005350045206 172.00000086069105 354.9044290952349 186.25000067949293 357.68317905990125C200.5000004982948 360.4619290245676 214.7500003170967 424.02583446631076 229.00000013589857 427.15192817656043C243.24999995470046 430.27802188681005 257.49999977350234 373.8925538537884 271.7499995923042 376.4397413213992C285.99999941110616 378.98692878901005 300.249999229908 442.20349048516994 314.49999904870987 442.43505298222544C328.74999886751175 442.66661547928095 342.99999868631363 379.33427253459337 357.2499985051155 377.8291163037324C371.4999983239174 376.32396007287144 385.7499981427193 431.5516156206155 399.99999796152116 433.40411559705973C414.24999778032304 435.25661557350395 428.499997599125 389.98614739914774 442.7499974179268 388.94411616239785C456.9999972367287 387.90208492564796 471.24999705553057 431.32005312356 485.49999687433245 427.15192817656043C499.7499966931344 422.98380322956086 513.9999965119362 361.5039602613175 528.2499963307381 363.93536648040055C542.49999614954 366.36677269948365 556.7499959683419 436.9933343014205 570.9999957871437 441.7403654910588C585.2499956059456 446.4873966806972 599.4999954247475 392.5333348667586 613.7499952435494 392.41755361823084C627.9999950623513 392.3017723697031 649.3749947905541 432.94099060294866 656.4999946999551 441.04567799989223 " transform="rotate(81, 400, 400)"></path><path d="M153.00000117778777 410.0913062149009C159.86111220165535 401.6178341004245 180.44444527325805 356.57464022873387 194.1666673209932 359.2504735280422C207.88888936872834 361.9263068273506 221.61111141646347 423.13599354902914 235.33333346419863 426.146306010751C249.0555555119338 429.1566184724729 262.77777755966895 374.8595011073409 276.4999996074041 377.3123482983736C290.22222165513926 379.76519548940627 303.94444370287437 440.64040304867126 317.6666657506095 440.863389156947C331.3888877983446 441.08637526522267 345.11110984607984 380.0996746518198 358.83333189381494 378.65026494802777C372.5555539415501 377.20085524423575 386.27777598928526 430.38304206798927 399.9999980370204 432.16693093419485C413.7222200847555 433.9508198004004 427.44444213249074 390.35703563250183 441.16666418022584 389.3535981452612C454.888886227961 388.3501606580205 468.61110827569604 430.16005595971353 482.3333303234312 426.146306010751C496.0555523711664 422.13255606178853 509.7777744189015 362.9297443145912 523.4999964666367 365.271098451486C537.2222185143719 367.6124525883808 550.9444405621069 435.62321561246813 564.6666626098422 440.1944308321199C578.3888846575774 444.7656460517717 592.1111067053123 392.80988282353445 605.8333287530476 392.6983897693966C619.5555508007828 392.5868967152588 640.1388838723853 431.72095871764344 646.999994896253 439.5254725072928 " transform="rotate(78, 400, 400)"></path><path d="M162.50000113248825 409.70317259714784C169.09722327082244 401.55560325630506 188.88888968582506 358.244839918141 202.08333396249347 360.81775655209134C215.27777823916188 363.3906731860417 228.47222251583025 422.2461411876557 241.6666667924987 425.14067240084984C254.86111106916712 428.035203614044 268.0555553458355 375.82643691680164 281.24999962250394 378.18494383125613C294.44444389917237 380.54345074571063 307.63888817584075 439.07730416808084 320.8333324525091 439.29171388757675C334.0277767291775 439.5061236070726 347.222221005846 380.8650653249544 360.4166652825144 379.47140214823133C373.61110955918275 378.0777389715082 386.80555383585124 429.2144570712712 399.9999981125196 430.9297348272381C413.194442389188 432.645012583205 426.38888666585643 390.7279124217641 439.5833309425248 389.7630686840327C452.77777521919324 388.7982249463013 465.97221949586157 429.0000473517754 479.16666377253006 425.14067240084984C492.36110804919844 421.28129744992435 505.5555523258668 364.35551692377305 518.7499966025352 366.6068189784796C531.9444408792037 368.8581210331862 545.138885155872 434.253085479424 558.3333294325405 438.64848472908915C571.527773709209 443.04388397875425 584.7222179858773 393.0864193362185 597.9166622625457 392.9792144764706C611.1111065392141 392.87200961672266 630.9027729542167 430.5009153882464 637.499995092551 438.00525557060155 " transform="rotate(75, 400, 400)"></path><path d="M172.0000010871887 409.31504660878926C178.33333433998956 401.4933800415802 197.33333409839207 359.9150472369427 210.00000060399373 362.38504720553505C222.6666671095954 364.8550471741274 235.33333361519706 421.35629645567684 248.00000012079875 424.1350464203432C260.66666662640046 426.91379638500956 273.33333313200205 376.79338035565695 285.99999963760376 379.05754699353326C298.6666661432055 381.3217136314096 311.3333326488071 437.51421291688496 323.9999991544088 437.720046247601C336.66666566001044 437.925879578317 349.33333216561215 381.6304636274836 361.9999986712138 380.29254697782943C374.66666517681546 378.95463032817526 387.33333168241717 428.0458797039477 399.9999981880188 429.6925463496759C412.6666646936205 431.3392129954042 425.3333311992222 391.09879684042085 437.99999770482384 390.1725468521987C450.6666642104255 389.24629686397657 463.33333071602715 427.8400463732317 475.9999972216288 424.1350464203432C488.6666637272305 420.4300464674547 501.33333023283217 365.7812971623495 513.9999967384339 367.94254713486777C526.6666632440356 370.1037971073861 539.3333297496372 432.8829629757744 551.9999962552389 437.1025462554529C564.6666627608406 441.32212953513147 577.3333292664422 393.36296347829716 589.999995772044 393.2600468129391C602.6666622776456 393.1571301475811 621.6666620360481 429.2808796882439 627.9999952888489 436.48504626330487 " transform="rotate(72, 400, 400)"></path><path d="M181.50000104188916 408.9269168057334C187.56944540915663 401.43115301215806 205.77777851095905 361.58525074104716 217.91666724549398 363.9523340442815C230.05555598002894 366.3194173475158 242.19444471456387 420.4664479090007 254.3333334490988 423.1294166251393C266.47222218363373 425.7923853412779 278.61111091816866 377.76031997981494 290.7499996527036 379.9301463411131C302.8888883872386 382.0999727024112 315.0277771217735 435.9511178509918 327.16666585630844 436.148374792928C339.30555459084337 436.3456317348642 351.4444433253783 382.3958581153155 363.58333205991323 381.1136879927302C375.72222079444816 379.831517870145 387.8611095289831 426.87729852192695 399.999998263518 428.45535405741646C412.13888699805295 430.033409592906 424.27777573258794 391.46967744438035 436.4166644671228 390.5820212056675C448.5555532016578 389.6943649669546 460.6944419361927 426.68004157999076 472.83333067072766 423.1294166251393C484.9722194052626 419.57879167028784 497.11110813979747 367.20707358622866 509.24999687433245 369.27827147655864C521.3888856088674 371.3494693668887 533.5277743434024 431.51283665742744 545.6666630779373 435.55660396711943C557.8055518124722 439.60037127681136 569.9444405470072 393.6395038056785 582.0833292815421 393.5408753347104C594.222218016077 393.4422468637423 612.4305511178794 428.0608401735441 618.4999954851469 434.96483314131086 " transform="rotate(69, 400, 400)"></path><path d="M191.00000099658965 408.5387946320721C196.80555647832375 401.3689336121305 214.22222292352606 363.25546187454614 225.83333388699424 365.5196285124224C237.44444485046245 367.7837951502987 249.05555581393065 419.5766069917191 260.66666677739886 422.12379445932993C272.27777774086707 424.6709819269407 283.8888887043353 378.7272672333675 295.4999996678034 380.8027533180874C307.1111106312717 382.87823940280737 318.72222159473984 434.3880304144932 330.33333255820804 434.57671096764955C341.94444352167625 434.7653915208059 353.55555448514446 383.1612602325419 365.16666544861266 381.93483663702557C376.7777764120808 380.7084130415093 388.3888873755491 425.7087249693007 399.9999983390172 427.2181693945516C411.6111093024855 428.72761381980246 423.2222202659537 391.8405656777344 434.83333122942184 390.99150318853077C446.44444219289005 390.14244069932715 458.0555531563582 425.52004441614434 469.6666641198264 422.12379445932993C481.27777508329467 418.72754450251546 492.8888860467628 368.63285763950233 504.499997010231 370.6140034476441C516.1111079736993 372.5951492557858 527.7222189371674 430.14271796847515 539.3333299006356 434.01066930818047C550.9444408641039 437.8786206478858 562.555551827572 393.91605176245434 574.1666627910403 393.82171148587616C585.7777737545084 393.727371209298 603.1944401997107 426.84080828823886 608.999995681445 433.4446276487114 " transform="rotate(66, 400, 400)"></path><path d="M200.50000095129013 408.1506686437135C206.04166754749085 401.30671039740565 222.66666733609304 364.92566919334786 233.75000052849452 367.0869191658661C244.83333372089598 369.2481691383844 255.91666691329743 418.6867622597402 267.0000001056989 421.11816847882324C278.08333329810034 423.54957469790634 289.1666664905018 379.69421067222277 300.2499996829033 381.67535648036454C311.3333328753048 383.6565022885063 322.4166660677062 432.8249391632973 333.49999926010764 433.00504332767383C344.5833324525091 433.1851474920503 355.6666656449106 383.92665853507106 366.7499988373121 382.75598146662367C377.8333320297135 381.5853043981763 388.916665222115 424.5401476019772 399.9999984145165 425.9809809169894C411.0833316069179 427.42181423200157 422.1666647993194 392.21145009639116 433.2499979917209 391.40098135669683C444.33333118412236 390.59051261700245 455.4166643765237 424.36004343760067 466.49999756892527 421.11816847882324C477.58333076132675 417.8762935200458 488.6666639537281 370.05863787807874 499.74999714612966 371.94973160403225C510.83333033853114 373.84082532998576 521.9166635309325 428.7725954648255 532.9999967233341 432.46473083454424C544.0833299157355 436.156866204263 555.166663108137 394.19259590453294 566.2499963005384 394.10254382234467C577.3333294929399 394.0124917401564 593.9583292815421 425.6207725882364 599.4999958777428 431.9244183414147 " transform="rotate(63, 400, 400)"></path><path d="M210.0000009059906 407.76254074800636C215.27777861665794 401.2444852753321 231.11111174866005 366.5958746048009 241.66666716999475 368.6542079119612C252.2222225913295 370.7125412191214 262.7777780126642 417.7969156204127 273.333333433999 420.11254059096797C283.8888888553337 422.42816556152326 294.4444442766684 380.66115220372944 304.99999969800314 382.547957735293C315.5555551193379 384.4347632668566 326.1111105406726 431.2618460047528 336.6666659620073 431.4333737803495C347.222221383342 431.6049015559461 357.7777768046768 384.69205493025163 368.3333322260115 383.57712438887313C378.8888876473462 382.46219384749463 389.444443068681 423.37156832730506 399.9999984900157 424.7437905320786C410.5555539113504 426.1160127368521 421.11110933268515 392.58233260769936 431.66666475401985 391.8104576175142C442.2222201753546 391.0385826273291 452.77777559668925 423.20004055170835 463.333331018024 420.11254059096797C473.88888643935877 417.0250406302276 484.4444418606935 371.4844162093066 494.99999728202823 373.28545785307176C505.555552703363 375.086499496837 516.1111081246977 427.40247105382724 526.6666635460324 430.9187904535594C537.2222189673671 434.4351098532915 547.7777743887018 394.4691381392629 558.3333298100366 394.38337425146455C568.8888852313714 394.2976103636662 584.7222183633735 424.4007349808852 589.9999960740408 430.40420712676934 " transform="rotate(60, 400, 400)"></path><path d="M219.50000086069105 407.3744109449505C224.51388968582506 401.18225824591 239.55555616122706 368.26607810890533 249.58333381149504 370.2214947507076C259.611111461763 372.17691139250985 269.638889112031 416.9070670737365 279.666666762299 419.10691079576407C289.694444412567 421.3067545177916 299.722222062835 381.62809182788743 309.74999971310297 383.42055708287285C319.777777363371 385.21302233785826 329.805555013639 429.69875093885963 339.83333266390696 429.86170232567645C349.86111031417494 430.0246537124933 359.8888879644429 385.4574494180835 369.91666561471095 384.39826540377396C379.9444432649789 383.3390813894644 389.9722209152469 422.2029871452843 399.99999856551494 423.50659823981914C410.02777621578286 424.81020933435394 420.0555538660509 392.95321321165886 430.0833315163189 392.219931970983C440.11110916658686 391.48665073030713 450.13888681685484 422.0400357584674 460.1666644671228 419.10691079576407C470.19444211739085 416.17378583306066 480.2222197676588 372.9101926331857 490.2499974179268 374.6211821947627C500.27777506819484 376.3321717563397 510.30555271846276 426.03234473548036 520.3333303687307 429.3728481652259C530.3611080189987 432.7133515949714 540.3888856692668 394.7456784666442 550.4166633195348 394.66420277323584C560.4444409698028 394.5827270798274 575.4861074452047 423.1806954661854 580.4999962703387 428.88399400477533 " transform="rotate(57, 400, 400)"></path><path d="M229.00000081539153 406.9862830492433C233.75000075499216 401.12003312383655 248.00000057379404 369.9362835203584 257.5000004529953 371.78878349680264C267.0000003321966 373.6412834732469 276.5000002113978 416.017220434409 286.0000000905991 418.10128290790874C295.49999996980034 420.1853453814085 304.9999998490016 382.59503335939405 314.49999972820285 384.2931583378013C323.9999996074041 385.9912833162085 333.4999994866053 428.1356577803151 342.99999936580656 428.2900327783521C352.4999992450078 428.44440777638914 361.9999991242091 386.22284581326403 371.4999990034104 385.2194083260234C380.99999888261164 384.2159708387828 390.4999987618129 421.03440787061214 399.99999864101414 422.2694078549083C409.4999985202154 423.5044078392045 418.99999839941665 393.324095722967 428.4999982786179 392.6294082318004C437.99999815781916 391.9347207406338 447.49999803702036 420.88003287257516 456.9999979162216 418.10128290790874C466.49999779542287 415.3225329432424 475.9999976746241 374.3359709644135 485.4999975538254 375.9569084438022C494.9999974330267 377.5778459231909 504.4999973122279 424.6622203244821 513.9999971914292 427.82690778424103C523.4999970706305 430.99159524399994 532.9999969498317 395.02222070137424 542.499996829033 394.9450332023557C551.9999967082342 394.8678457033372 566.249996527036 421.9606578588343 570.9999964666367 427.36378279013 " transform="rotate(54, 400, 400)"></path><path d="M238.50000077009202 406.5981570608847C242.98611182415925 401.05780990911165 256.4444449863611 371.60649083916013 265.41666709449555 373.35607415024634C274.3888892026301 375.10565746133256 283.3611113107646 415.12737570243013 292.3333334188991 417.0956569274021C301.3055555270336 419.06393815237413 310.27777763516815 383.56197679824936 319.2499997433027 385.1657615000784C328.2222218514372 386.7695462019075 337.1944439595717 426.57256652911923 346.1666660677062 426.7183651383764C355.13888817584075 426.8641637476336 364.1111102839753 386.98824411579324 373.08333239210975 386.0405531556215C382.0555545002443 385.0928621954498 391.0277766083788 419.86583050328863 399.99999871651335 421.0322193773461C408.9722208246478 422.19860825140364 417.9444429327824 393.6949801416238 426.9166650409169 393.03888639996643C435.88888714905136 392.3827926583091 444.86110925718583 419.7200318940315 453.8333313653204 417.0956569274021C462.80555347345495 414.4712819607728 471.7777755815895 375.7617512029899 480.74999768972395 377.29263660019035C489.72221979785854 378.8235219973908 498.694441905993 423.2920978208325 507.66666401412755 426.28096931060486C516.6388861222621 429.26984080037715 525.6111082303966 395.29876484345283 534.5833303385311 395.2258655388242C543.5555524466656 395.1529662341956 557.0138856088674 420.7406221588318 561.4999966629347 425.8435734828333 " transform="rotate(51, 400, 400)"></path><path d="M248.00000072479247 406.2100348872234C252.22222289332638 400.9955905090841 264.88888939892803 373.27670197265905 273.33333373599584 374.9233686183873C281.7777780730636 376.5700352641155 290.2222224101314 414.2375347851485 298.66666674719914 416.09003476159273C307.11111108426695 417.94253473803695 315.5555554213347 384.5289240518019 323.9999997584025 386.03836847705276C332.4444440954703 387.54781290230363 340.88888843253807 425.0094790926206 349.3333327696058 425.14670131309794C357.7777771066736 425.28392353357526 366.22222144374143 387.75364623301965 374.6666657808092 386.8617017999169C383.111110117877 385.96975736681406 391.55555445494474 418.6972569506624 399.99999879201255 419.79503471448123C408.44444312908035 420.8928124783 416.8888874661481 394.0658683749778 425.3333318032159 393.44836838282976C433.77777614028366 392.83086839068164 442.22222047735147 418.56003473018507 450.6666648144192 416.09003476159273C459.111109151487 413.6200347930004 467.5555534885548 377.1875352562636 475.9999978256226 378.6283685712758C484.4444421626904 380.06920188628794 492.88888649975814 421.92197913188016 501.3333308368259 424.73503465166584C509.7777751738937 427.5480901714516 518.2222195109615 395.5753128002287 526.6666638480292 395.50670168999C535.111108185097 395.43809057975136 547.7777746906987 419.5205902735265 551.9999968592326 424.3233679902338 " transform="rotate(48, 400, 400)"></path><path d="M257.5000006794929 405.82190699151624C261.4583339624935 400.9333653870106 273.33333381149504 374.94690738411214 281.25000037749606 376.49065736448233C289.16666694349715 378.0344073448525 297.0833335094982 413.347688145821 305.0000000754992 415.08440687373746C312.9166666415002 416.82112560165393 320.8333332075013 385.49586558330856 328.74999977350234 386.91096973198125C336.6666663395034 388.3260738806539 344.58333290550445 423.44638593407603 352.4999994715055 423.5750317657736C360.4166660375065 423.7036775974711 368.3333326035076 388.51904262820017 376.2499991695086 387.68284472216635C384.1666657355097 386.8466468161325 392.0833323015107 417.52867767599025 399.99999886751175 418.5578443295704C407.9166654335128 419.58701098315055 415.83333199951386 394.43675088628595 423.74999856551494 393.8578446436471C431.66666513151597 393.2789384010083 439.58333169751694 417.40003184429276 447.499998263518 415.08440687373746C455.41666482951905 412.7687819031821 463.33333139552013 378.6133135874914 471.24999796152116 379.9640948203153C479.16666452752224 381.31487605313924 487.08333109352327 420.5518547208819 494.9999976595243 423.18909427068104C502.9166642255254 425.8263338204801 510.83333079152635 395.85185503495865 518.7499973575275 395.7875321191099C526.6666639235285 395.72320920326115 538.54166377253 418.30055266617535 542.4999970555306 422.8031567755885 " transform="rotate(45, 400, 400)"></path><path d="M267.0000006341934 405.43377528111176C270.69444503166056 400.8711364502398 281.77777822406205 376.61710898086795 289.16666701899635 378.05794229588014C296.55555581393065 379.4987756108923 303.94444460886496 412.4578376917962 311.33333340379926 414.07877517118493C318.72222219873356 415.6997126505736 326.1111109936679 386.4628033001179 333.49999978860217 387.78356717221243C340.8888885835365 389.10433104430695 348.27777737847083 421.88328896083425 355.66666617340513 422.003358403752C363.05555496833944 422.12342784666964 370.44444376327374 389.2844352086835 377.83333255820804 388.50398382971855C385.22222135314234 387.72353245075357 392.6111101480767 416.3600945866209 399.99999894301095 417.32065012996236C407.3888877379453 418.2812056733038 414.7777765328796 394.8076295828969 422.1666653278139 394.2673170897673C429.5555541227482 393.7270045966377 436.9444429176825 416.2400251437032 444.3333317126168 414.07877517118493C451.7222205075511 411.9175251986666 459.1111093024854 380.0390881040219 466.49999809741973 381.29981725465757C473.8888868923541 382.5605464052932 481.27777568728834 419.1817264951864 488.6666644822227 421.6431500749989C496.055553277157 424.10457365481136 503.4444420720913 396.12839345499134 510.8333308670256 396.06835873353253C518.2222196619599 396.0083240120737 529.3055528543614 417.08051124412697 532.9999972518285 421.28294174624585 " transform="rotate(42, 400, 400)"></path><path d="M276.5000005888939 405.0456550147991C279.9305561008277 400.8089189575609 290.222222636629 378.28732202171557 297.0833336604966 379.62523867136974C303.94444468436416 380.9631553210239 310.80555570823174 411.5679986818632 317.6666667320993 413.07315491272414C324.5277777559669 414.5783111435851 331.3888887798345 387.4297524610191 338.24999980370205 388.6561760565354C345.11111082756963 389.88259965205174 351.9722218514372 420.32020343168426 358.8333328753048 420.43169648582216C365.6944438991723 420.54318953995994 372.55555492303995 390.0498392332585 379.4166659469075 389.32513438136255C386.27777697077505 388.6004295294665 393.13888799464263 415.19152294134324 399.9999990185102 416.08346737444606C406.86111004237773 416.9754118075488 413.72222106624537 395.17851972359955 420.5833320901129 394.67680097997925C427.44444311398047 394.1750822363589 434.30555413784805 415.0800298872054 441.1666651617156 413.07315491272414C448.0277761855832 411.0662799382429 454.8888872094508 381.4648740646442 461.74999823331837 382.6355511330916C468.61110925718594 383.80622820153906 475.47222028105347 417.8116097135827 482.3333313049211 420.0972173234086C489.1944423287887 422.3828249332345 496.05555335265615 396.4049433191159 502.9166643765238 396.34919679204694C509.7777754003914 396.293450264978 520.0694419361927 415.8604812661704 523.4999974481266 419.762738160995 " transform="rotate(39, 400, 400)"></path><path d="M286.00000054359435 404.65752521174323C289.16666716999475 400.7466919281387 298.666667049196 379.95752552581996 305.00000030199686 381.1925255101162C311.3333335547977 382.4275254944123 317.6666668075985 410.678150135187 324.0000000603994 412.06752511752023C330.3333333132002 413.45690009985344 336.666666566001 388.3966920851771 342.9999998188019 389.52877540411527C349.33333307160274 390.6608587230534 355.66666632440354 418.7571083657911 361.9999995772044 418.8600250311491C368.33333283000525 418.96294169650713 374.66666608280605 390.8152337210904 380.9999993356069 390.1462753962633C387.33333258840776 389.47731707143623 393.66666584120856 414.0229417593225 399.9999990940094 414.8462750821866C406.33333234681027 415.6696084050507 412.66666559961106 395.54940032755906 418.9999988524119 395.086275333448C425.3333321052128 394.6231503393369 431.6666653580136 413.92002509396445 437.9999986108144 412.06752511752023C444.3333318636153 410.215025141076 450.6666651164161 382.89065048852336 456.99999836921694 383.97127547478254C463.3333316220178 385.05190046104167 469.6666648748186 416.4414833952358 475.99999812761945 418.5512750350751C482.3333313804203 420.66106667491437 488.6666646332211 396.6814836464972 494.999997886022 396.6300253138182C501.3333311388228 396.5785669811392 510.83333101802407 414.6404417514706 513.9999976444244 418.24252503900107 " transform="rotate(36, 400, 400)"></path><path d="M295.5000004982948 404.2693973160361C298.4027782391619 400.68446680606525 307.111111461763 381.62773093727304 312.91666694349715 382.7598142562112C318.7222224252312 383.89189757514936 324.5277779069653 409.7883034958595 330.33333338869943 411.06189722966496C336.13888887043356 412.33549096347036 341.94444435216764 389.3636336166837 347.7499998339017 390.4013766590437C353.55555531563584 391.4391197014037 359.3611107973699 417.1940152072466 365.166666279104 417.2883554838248C370.9722217608381 417.38269576040295 376.77777724257226 391.580630116271 382.58333272430633 390.9674183185128C388.3888882060404 390.35420652075464 394.19444368777454 412.8543624846504 399.9999991695086 413.60908469727576C405.80555465124274 414.3638069099012 411.6111101329768 395.9202828388672 417.41666561471095 395.4957515942654C423.222221096445 395.0712203496636 429.0277765781791 412.7600222080722 434.83333205991323 411.06189722966496C440.63888754164736 409.3637722512577 446.4444430233814 384.3164288197512 452.2499985051155 385.30700172382205C458.05555398684965 386.2975746278929 463.8611094685837 415.0713589842376 469.6666649503178 417.00533465409023C475.4722204320519 418.9393103239429 481.277775913786 396.9580258812272 487.08333139552013 396.9108557429381C492.8888868772542 396.863685604649 501.59722009985535 413.4204041441194 504.4999978407225 416.7223138243557 " transform="rotate(33, 400, 400)"></path><path d="M305.0000004529953 403.88126942032886C307.638889308329 400.6222416839918 315.55555587433 383.2979363487261 320.8333335849974 384.3271030023063C326.1111112956647 385.3562696558864 331.3888890063321 408.898456856532 336.6666667169995 410.0562693418097C341.94444442766684 411.21408182708734 347.2222221383342 390.3305751481904 352.4999998490016 391.2739779139722C357.77777755966895 392.217380679754 363.0555552703363 415.6309220487021 368.33333298100365 415.7166859365004C373.611110691671 415.8024498242988 378.8888884023384 392.3460265114515 384.16666611300576 391.78856124076225C389.4444438236731 391.231095970073 394.7222215343405 411.68578320997824 399.99999924500787 412.371894312365C405.2777769556752 413.05800541475173 410.5555546663426 396.29116535017533 415.8333323770099 395.9052278550828C421.1111100876773 395.51929035999024 426.3888877983446 411.6000193221799 431.666665509012 410.0562693418097C436.9444432196794 408.51251936143944 442.22222093034674 385.74220715097897 447.49999864101414 386.64272797286156C452.7777763516815 387.5432487947442 458.05555406234885 413.70123457323933 463.3333317730162 415.4593942731054C468.61110948368355 417.2175539729715 473.8888871943509 397.23456811595713 479.1666649050183 397.191686172058C484.4444426156857 397.1488042281588 492.36110918168674 412.2003665367683 494.9999980370204 415.2021026097103 " transform="rotate(30, 400, 400)"></path><path d="M314.5000004076958 403.4931443856446C316.87500037749606 400.5600194229412 324.00000028689703 384.96814462120216 328.75000022649766 385.8943946094243C333.5000001660983 386.8206445976464 338.25000010569886 408.0086130782274 343.00000004529954 409.0506443149773C347.74999998490017 410.0926755517272 352.4999999245008 391.29751954072 357.2499998641014 392.1465820299236C361.99999980370205 392.9956445191272 366.7499997433026 414.0678317511805 371.4999996829033 414.145019250199C376.2499996225039 414.2222067492175 380.99999956210456 393.11142576765496 385.7499995017052 392.60970702403466C390.4999994413058 392.10798828041436 395.24999938090644 410.51720679632905 399.9999993205071 411.1347067884771C404.7499992601077 411.7522067806252 409.4999991997083 396.6620507225065 414.24999913930895 396.31470697692316C418.9999990789096 395.96736323133985 423.74999901851015 410.4400192973105 428.49999895811084 409.0506443149773C433.2499988977114 407.66126933264417 437.9999988373121 387.1679883432297 442.74999877691266 387.978457082924C447.49999871651335 388.7889258226184 452.2499986561139 412.33111302326404 456.9999985957146 413.91345675314346C461.7499985353152 415.49580048302295 466.49999847491586 397.51111321171004 471.2499984145165 397.4725194622008C475.9999983541171 397.4339257126916 483.124998263518 410.9803317904401 485.49999823331837 413.68189425608796 " transform="rotate(27, 400, 400)"></path><path d="M324.00000036239624 403.1050174436117C326.1111114466632 400.49779525454204 332.44444469946404 386.63835098632956 336.6666668679979 387.46168430919363C340.8888890365318 388.28501763205776 345.1111112050657 407.1187673925742 349.33333337359954 408.04501738079637C353.55555554213345 408.9712673690185 357.77777771066735 392.26446202590097 361.99999987920125 393.01918423852635C366.22222204773516 393.7739064511518 370.44444421626906 412.5047395463103 374.6666663848029 412.57335065654894C378.8888885533368 412.64196176678763 383.1111107218707 393.87682311650985 387.33333289040456 393.43085089995844C391.55555505893847 392.98487868340703 395.77777722747237 409.3486284753312 399.9999993960063 409.8975173572406C404.2222215645402 410.44640623915 408.4444437330741 397.03293418748893 412.666665901608 396.72418419141485C416.88888807014183 396.4154341953408 421.11111023867574 409.28001736509253 425.3333324072096 408.04501738079637C429.5555545757435 406.8100173965002 433.7777767442774 388.5937676281318 437.9999989128113 389.3141842856379C442.2222210813452 390.03460094314397 446.4444432498791 410.96098956594005 450.66666541841295 412.3675173258329C454.88888758694685 413.7740450857258 459.11110975548075 397.7876564001143 463.3333319240146 397.753350844995C467.5555540925485 397.7190452898757 473.88888734534936 409.76029513676326 475.9999984296163 412.1616839951169 " transform="rotate(24, 400, 400)"></path><path d="M333.5000003170967 402.71689050157886C335.34722251583025 400.4355710861429 340.88888911203105 388.3085573514569 344.5833335094982 389.028974008963C348.2777779069653 389.74939066646914 351.9722223044325 406.228921706921 355.66666670189966 407.0393904466154C359.3611110993668 407.84985918630974 363.05555549683396 393.2314045110819 366.7499998943011 393.89178644712916C370.44444429176826 394.5521683831764 374.1388886892354 410.9416473414401 377.83333308670257 411.0016820628989C381.52777748416975 411.06171678435777 385.22222188163687 394.6422204653647 388.916666279104 394.2519947758822C392.6111106765712 393.86176908639976 396.30555507403835 408.1800501543334 399.9999994715055 408.66032792600413C403.69444386897266 409.14060569767486 407.38888826643984 397.4038176524714 411.08333266390696 397.1336614059066C414.7777770613741 396.8635051593418 418.47222145884126 408.12001543287454 422.16666585630844 407.0393904466154C425.86111025377556 405.9587654603563 429.5555546512427 390.0195469130339 433.24999904870987 390.64991148835173C436.94444344617705 391.2802760636696 440.63888784364417 409.5908661086161 444.33333224111135 410.8215778985224C448.02777663857853 412.05228968842863 451.72222103604565 398.06419958851865 455.4166654335128 398.0341822277892C459.11110983097996 398.0041648670598 464.6527764271807 408.54025848308646 466.49999862591426 410.64147373414585 " transform="rotate(21, 400, 400)"></path><path d="M343.0000040864944 402.32876355954596C344.58333739969464 400.3733469177437 349.33333733929527 389.9787637165843 352.50000396569567 390.5962637087324C355.6666705920961 391.21376370088046 358.8333372184965 405.33907602126783 362.0000038448969 406.03376351243446C365.1666704712974 406.72845100360104 368.3333370976978 394.1983469962629 371.5000037240982 394.7643886557319C374.66667035049863 395.330430315201 377.83333697689903 409.37855513656984 381.00000360329943 409.4300134692489C384.1666702296999 409.4814718019279 387.3333368561003 395.4076178142195 390.5000034825007 395.073138651806C393.66667010890114 394.73865948939243 396.83333673530154 407.0114718333356 400.00000336170194 407.4231384947676C403.1666699881024 407.83480515619965 406.3333366145028 397.77470111745384 409.5000032409032 397.5431386203983C412.66666986730365 397.3115761233428 415.83333649370405 406.96001350065654 419.00000312010445 406.03376351243446C422.1666697465049 405.1075135242123 425.3333363729053 391.445326197936 428.5000029993057 391.98563869106556C431.66666962570616 392.52595118419515 434.83333625210656 408.2207426512922 438.00000287850696 409.2756384712119C441.1666695049074 410.33053429113147 444.3333361313078 398.3407427769229 447.5000027577083 398.31501361058343C450.6666693841087 398.2892844442439 455.4166693237093 407.3202218294096 457.00000263690947 409.12126347317485 " transform="rotate(18, 400, 400)"></path><path d="M352.5000040411949 401.9406337564901C353.81944846886176 400.31111988832157 357.7777817518623 391.64896722068875 360.41667060719595 392.16355054747885C363.05555946252963 392.6781338742689 365.6944483178633 404.4492274745917 368.33333717319704 405.0281337172305C370.9722260285307 405.6070399598693 373.6111148838644 395.1652866204209 376.25000373919806 395.6369880033118C378.88889259453174 396.1086893862027 381.5277814498654 407.81546007067675 384.1666703051991 407.8583420145759C386.80555916053277 407.90122395847504 389.44444801586644 396.17301230205146 392.0833368712001 395.8942796667068C394.7222257265338 395.6155470313622 397.3611145818675 405.8428906513148 400.0000034372012 406.18594620250815C402.6388922925349 406.52900175370155 405.27778114786855 398.14558172141335 407.9166700032022 397.9526129738671C410.5555588585359 397.7596442263208 413.1944477138696 405.8000087074156 415.83333656920325 405.0281337172305C418.472225424537 404.2562587270454 421.11111427987066 392.87110262181517 423.75000313520434 393.3213630327565C426.388891990538 393.77162344369776 429.0277808458717 406.8506163329453 431.66666970120536 407.72969618287834C434.30555855653904 408.6087760328114 436.9444474118727 398.61728310430425 439.5833362672064 398.5958421323547C442.2222251225401 398.5744011604051 446.18055840554064 406.10018231470985 447.5000028332075 407.60105035118085 " transform="rotate(15, 400, 400)"></path><path d="M362.0000039958954 401.55250776813153C363.0555595380289 400.24889667359673 366.2222261644293 393.31917453949046 368.33333724869624 393.7308412009225C370.44444833296313 394.1425078623546 372.55555941723014 403.5593827426128 374.66667050149704 404.02250773672387C376.777781585764 404.48563273083494 378.88889267003094 396.13223005927614 381.0000037542979 396.50959116558886C383.11111483856484 396.8869522719016 385.2222259228318 406.2523688194808 387.33333700709875 406.2866743746002C389.44444809136564 406.3209799297195 391.55555917563265 396.9384106045806 393.66667025989955 396.7154244963049C395.7777813441665 396.4924383880292 397.88889242843345 404.6743132839913 400.0000035127004 404.948757724946C402.11111459696735 405.2232021659007 404.2222256812343 398.5164661400701 406.33333676550126 398.36209114203314C408.44444784976815 398.2077161439961 410.55555893403516 404.640007728872 412.66667001830206 404.02250773672387C414.777781102569 403.40500774457576 416.88889218683596 394.2968828603916 419.0000032711029 394.65709118914464C421.11111435536986 395.0172995178977 423.2222254396368 405.4804938292957 425.33333652390377 406.1837577092422C427.44444760817066 406.8870215891886 429.55555869243767 398.89382724638284 431.66666977670457 398.8766744688232C433.7777808609715 398.8595216912635 436.9444474873719 404.8801466147073 438.0000030295054 406.0808410438841 " transform="rotate(12, 400, 400)"></path><path d="M371.5000001358986 401.16438177977295C372.2916667924987 400.18667345887184 374.666666762299 394.9893818582922 376.2500000754992 395.2981318543662C377.83333338869943 395.60688185044023 379.41666670189966 402.6695380106339 381.00000001509983 403.01688175621723C382.58333332830006 403.3642255018005 384.1666666415002 397.09917349813145 385.74999995470046 397.382194327866C387.3333332679007 397.6652151576005 388.9166665811009 404.6892775682849 390.4999998943011 404.71500673462447C392.0833332075013 404.74073590096395 393.6666665207015 397.70380890710976 395.2499998339017 397.536569325903C396.83333314710194 397.36932974469624 398.41666646030217 403.5057359166678 399.99999977350234 403.7115692473838C401.58333308670257 403.9174025780998 403.16666639990274 398.8873505587269 404.74999971310297 398.77156931019914C406.3333330263032 398.6557880616714 407.9166663395034 403.4800067503283 409.4999996527036 403.01688175621723C411.0833329659038 402.55375676210616 412.666666279104 395.722663098968 414.2499995923042 395.9928193455328C415.83333290550445 396.2629755920976 417.4166662187047 404.1103713256461 418.99999953190485 404.63781923560595C420.5833328451051 405.16526714556574 422.16666615830525 399.1703713884615 423.7499994715055 399.1575068052917C425.3333327847057 399.14464222212194 427.70833275450605 403.6601109147048 428.4999994111061 404.5606317365874 " transform="rotate(9, 400, 400)"></path><path d="M381.0000000905991 400.7762557914144C381.5277778616658 400.124450244147 383.111111174866 396.65958917709384 384.1666667169995 396.8654225078099C385.22222225913293 397.07125583852593 386.27777780126644 401.77969327865503 387.3333333433999 402.01125577571054C388.38888888553333 402.2428182727661 389.44444442766684 398.0661169369867 390.49999996980034 398.25479749014306C391.5555555119338 398.4434780432994 392.61111105406724 403.12618631708904 393.66666659620074 403.1433390946487C394.7222221383342 403.16049187220835 395.7777776804677 398.4692072096389 396.83333322260114 398.35771415550107C397.8888887647346 398.24622110136323 398.9444443068681 402.3371585493443 399.9999998490016 402.4743807698216C401.05555539113504 402.611602990299 402.1111109332685 399.2582349773837 403.166666475402 399.1810474783652C404.22222201753544 399.1038599793467 405.27777755966895 402.3200057717846 406.3333331018024 402.01125577571054C407.38888864393584 401.7025057796365 408.44444418606935 397.14844333754445 409.49999972820285 397.3285475019209C410.5555552703363 397.50865166629745 411.61111081246975 402.7402488219965 412.66666635460325 403.0918807619697C413.7222218967367 403.44351270194295 414.7777774388702 399.4469155305401 415.83333298100365 399.43833914176025C416.8888885231371 399.4297627529804 418.4722218363373 402.4400752147023 418.9999996074041 403.0404224292907 " transform="rotate(6, 400, 400)"></path><path d="M390.50000004529954 400.3881278957072C390.7638889308329 400.06222512207347 391.555555587433 398.3297945885469 392.0833333584997 398.4327112539049C392.6111111295665 398.53562791926294 393.1388889006332 400.8898466393275 393.66666667169994 401.00562788785527C394.19444444276667 401.121409136383 394.72222221383345 399.0330584684934 395.24999998490017 399.12739874507156C395.7777777559669 399.2217390216497 396.3055555270336 401.5630931585445 396.83333329810034 401.57166954732435C397.3611110691671 401.5802459361042 397.88888884023385 399.2346036048195 398.41666661130057 399.17885707775054C398.9444443823673 399.12311055068164 399.472222153434 401.16857927467214 399.9999999245008 401.23719038491083C400.5277776955675 401.30580149514947 401.05555546663425 399.62911748869186 401.583333237701 399.5905237391826C402.11111100876775 399.55192998967334 402.6388887798345 401.1600028858923 403.1666665509012 401.00562788785527C403.6944443219679 400.8512528898183 404.2222220930347 398.5742216687722 404.7499998641014 398.6642737509605C405.27777763516815 398.75432583314876 405.8055554062349 401.37012441099824 406.3333331773016 401.54594038098486C406.8611109483684 401.7217563509715 407.3888887194351 399.72345776527004 407.9166664905018 399.7191695708801C408.44444426156855 399.7148813764902 409.23611091816866 401.2200376073512 409.49999980370205 401.52021121464537 " transform="rotate(3, 400, 400)"></path></g></svg>