<svg xmlns="http://www.w3.org/2000/svg" version="1.1" xmlns:xlink="http://www.w3.org/1999/xlink" xmlns:svgjs="http://svgjs.dev/svgjs" viewBox="0 0 800 800" opacity="1"><defs><filter id="nnneon-filter" x="-100%" y="-100%" width="400%" height="400%" filterUnits="objectBoundingBox" primitiveUnits="userSpaceOnUse" color-interpolation-filters="sRGB">
	<feGaussianBlur stdDeviation="0 0" x="0%" y="0%" width="100%" height="100%" in="SourceGraphic" edgeMode="none" result="blur"></feGaussianBlur></filter><filter id="nnneon-filter2" x="-100%" y="-100%" width="400%" height="400%" filterUnits="objectBoundingBox" primitiveUnits="userSpaceOnUse" color-interpolation-filters="sRGB">
	<feGaussianBlur stdDeviation="0 0" x="0%" y="0%" width="100%" height="100%" in="SourceGraphic" edgeMode="none" result="blur"></feGaussianBlur></filter></defs><g stroke-width="5" stroke="hsl(32, 100%, 51%)" fill="none"><path d="M383.21837557503545 157.96367042796084C393.6028447692035 151.96927418336352 406.3971552307965 151.96927418336352 416.78162442496455 157.96534859040338L601.2183895050948 264.4497900541308C611.6028586992628 270.44418629872814 618.0000139300594 281.5250929065322 618.0000139300594 293.51556355816945V506.4844464856244C618.0000139300594 518.4749171372616 611.6028586992628 529.5558237450657 601.2183895050948 535.5518981521054L416.78162442496455 642.0363396158328C406.3971552307965 648.0307358604302 393.6028447692035 648.0307358604302 383.21837557503545 642.0346614533904L198.78161049490518 535.550219989663C188.3971413007372 529.5558237450657 181.9999860699407 518.4749171372616 181.9999860699407 506.4844464856244V293.51556355816945C181.9999860699407 281.5250929065322 188.3971413007372 270.44418629872814 198.78161049490518 264.44811189168837L383.21837557503545 157.96367042796084Z " filter="url(#nnneon-filter)"></path><path d="M456.21837557503545 157.96367042796084C466.6028447692035 151.96927418336352 479.3971552307965 151.96927418336352 489.78162442496455 157.96534859040338L674.2183895050948 264.4497900541308C684.6028586992628 270.44418629872814 691.0000139300594 281.5250929065322 691.0000139300594 293.51556355816945V506.4844464856244C691.0000139300594 518.4749171372616 684.6028586992628 529.5558237450657 674.2183895050948 535.5518981521054L489.78162442496455 642.0363396158328C479.3971552307965 648.0307358604302 466.6028447692035 648.0307358604302 456.21837557503545 642.0346614533904L271.7816104949052 535.550219989663C261.3971413007372 529.5558237450657 254.9999860699407 518.4749171372616 254.9999860699407 506.4844464856244V293.51556355816945C254.9999860699407 281.5250929065322 261.3971413007372 270.44418629872814 271.7816104949052 264.44811189168837L456.21837557503545 157.96367042796084Z " filter="url(#nnneon-filter2)" opacity="0"></path><path d="M310.21837557503545 157.96367042796084C320.6028447692035 151.96927418336352 333.3971552307965 151.96927418336352 343.78162442496455 157.96534859040338L528.2183895050948 264.4497900541308C538.6028586992628 270.44418629872814 545.0000139300594 281.5250929065322 545.0000139300594 293.51556355816945V506.4844464856244C545.0000139300594 518.4749171372616 538.6028586992628 529.5558237450657 528.2183895050948 535.5518981521054L343.78162442496455 642.0363396158328C333.3971552307965 648.0307358604302 320.6028447692035 648.0307358604302 310.21837557503545 642.0346614533904L125.78161049490518 535.550219989663C115.39714130073719 529.5558237450657 108.99998606994069 518.4749171372616 108.99998606994069 506.4844464856244V293.51556355816945C108.99998606994069 281.5250929065322 115.39714130073719 270.44418629872814 125.78161049490518 264.44811189168837L310.21837557503545 157.96367042796084Z " filter="url(#nnneon-filter2)" opacity="0"></path><path d="M383.21837557503545 157.96367042796084C393.6028447692035 151.96927418336352 406.3971552307965 151.96927418336352 416.78162442496455 157.96534859040338L601.2183895050948 264.4497900541308C611.6028586992628 270.44418629872814 618.0000139300594 281.5250929065322 618.0000139300594 293.51556355816945V506.4844464856244C618.0000139300594 518.4749171372616 611.6028586992628 529.5558237450657 601.2183895050948 535.5518981521054L416.78162442496455 642.0363396158328C406.3971552307965 648.0307358604302 393.6028447692035 648.0307358604302 383.21837557503545 642.0346614533904L198.78161049490518 535.550219989663C188.3971413007372 529.5558237450657 181.9999860699407 518.4749171372616 181.9999860699407 506.4844464856244V293.51556355816945C181.9999860699407 281.5250929065322 188.3971413007372 270.44418629872814 198.78161049490518 264.44811189168837L383.21837557503545 157.96367042796084Z "></path></g></svg>